Toy Story 3 3D (2010) Bluray3Drip  3DTV Active Shutter (side by side)


  
http://www.imdb.com/title/tt0435761/


Format                           : Matroska
Format version                   : Version 2
File size                        : 11.1 GiB
Duration                         : 1h 42mn
Overall bit rate                 : 15.5 Mbps
Movie name                       : TOYSTORY3_3D.Title800.Bluray3DRip
Encoded date                     : UTC 2011-12-04 02:50:32
Writing application              : DVDFab
Writing library                  : libebml v0.7.8 + libmatroska v0.8.1

Video
ID                               : 1
Format                           : AVC
Format/Info                      : Advanced Video Codec
Format profile                   : High@L5.1
Format settings, CABAC           : Yes
Format settings, ReFrames        : 2 frames
Format settings, GOP             : M=3, N=15
Codec ID                         : V_MPEG4/ISO/AVC
Duration                         : 1h 42mn
Bit rate mode                    : Variable
Bit rate                         : 14.7 Mbps
Maximum bit rate                 : 22.5 Mbps
Width                            : 1 920 pixels
Height                           : 1 080 pixels
Display aspect ratio             : 16:9
Frame rate                       : 23.976 fps
Color space                      : YUV
Chroma subsampling               : 4:2:0
Bit depth                        : 8 bits
Scan type                        : Progressive
Bits/(Pixel*Frame)               : 0.296
Stream size                      : 10.5 GiB (95%)

Audio
ID                               : 2
Format                           : AC-3
Format/Info                      : Audio Coding 3
Mode extension                   : CM (complete main)
Codec ID                         : A_AC3
Duration                         : 1h 42mn
Bit rate mode                    : Constant
Bit rate                         : 448 Kbps
Channel(s)                       : 6 channels
Channel positions                : Front: L C R, Side: L R, LFE
Sampling rate                    : 48.0 KHz
Bit depth                        : 16 bits
Compression mode                 : Lossy
Stream size                      : 328 MiB (3%)		